#!OML:ASF H:\Not Pregnant\Project 1\Capture day 1\Session 1\non-pregnant.ASF
:FULLY-SPECIFIED
:DEGREES
882
root 11.0619 15.1043 34.2133 467.444 -80.1979 -452.016
lowerback 1.88828 3.81792 12.4815
upperback -6.09929 5.72354 1.06224
thorax -6.47556 2.10888 -6.18115
lowerneck 17.4358 -9.65642 -31.1807
upperneck -13.4226 -18.3716 44.1593
head 1.76859 -12.0098 23.4455
rclavicle -4.65482e-014 -7.40473e-015
rhumerus -35.5103 9.60764 -90.3271
rradius 30.5386
rwrist 19.1809
rhand -10.3185 3.04345
rfingers 7.12502
rthumb 15.6769 -26.3415
lclavicle -4.65482e-014 -7.40473e-015
lhumerus -48.9531 0.581789 86.5598
lradius 49.1285
lwrist 43.9793
lhand -16.1137 -18.45
lfingers 7.12502
lthumb 10.0905 11.288
rfemur -26.57 -27.6534 35.839
rtibia 40.1012
rfoot -31.8677 17.613
rtoes -3.23572
lfemur -51.2446 2.73672 -12.1456
ltibia 61.7216
lfoot -21.4769 -8.86844
ltoes -28.599
883
root 11.0384 15.1078 34.2245 468.426 -80.0895 -452.875
lowerback 1.84158 3.86179 12.3968
upperback -6.09573 5.77101 1.09826
thorax -6.44466 2.13994 -6.09401
lowerneck 17.2748 -9.68074 -31.0687
upperneck -13.4227 -18.3426 44.2055
head 1.78222 -11.9928 23.4309
rclavicle 4.8811e-015 3.09856e-014
rhumerus -35.3633 8.66606 -89.7766
rradius 29.6429
rwrist 20.7744
rhand -10.2329 3.25922
rfingers 7.12502
rthumb 15.7593 -26.1192
lclavicle 4.8811e-015 3.09856e-014
lhumerus -49.1923 0.860895 86.3855
lradius 48.8396
lwrist 44.9107
lhand -15.7617 -18.1024
lfingers 7.12502
lthumb 10.43 11.6189
rfemur -26.5145 -27.6187 35.8972
rtibia 39.9199
rfoot -31.8388 17.8038
rtoes -3.14566
lfemur -51.5726 2.53681 -11.823
ltibia 61.0974
lfoot -21.8191 -8.01604
ltoes -28.9913
884
root 11.0123 15.1125 34.2364 469.433 -80.0003 -453.756
lowerback 1.77376 3.89922 12.2859
upperback -6.09864 5.80539 1.12643
thorax -6.4124 2.16561 -5.99896
lowerneck 17.1169 -9.69851 -30.9588
upperneck -13.415 -18.3082 44.2495
head 1.79454 -11.9729 23.4182
rclavicle 5.79861e-014 1.53064e-014
rhumerus -35.2597 7.72774 -89.2265
rradius 28.8115
rwrist 22.2972
rhand -10.1764 3.42415
rfingers 7.12502
rthumb 15.8138 -25.95
lclavicle 5.79861e-014 1.53064e-014
lhumerus -49.4312 1.12874 86.1839
lradius 48.4873
lwrist 45.8866
lhand -15.4388 -17.6116
lfingers 7.12502
lthumb 10.7415 12.0938
rfemur -26.4363 -27.4826 35.9179
rtibia 39.7275
rfoot -31.8313 17.8147
rtoes -3.28705
lfemur -51.8408 2.27969 -11.4958
ltibia 60.3778
lfoot -22.0089 -7.05964
ltoes -29.2113
885
root 10.9846 15.1181 34.2516 470.48 -79.9305 -454.662
lowerback 1.69538 3.93132 12.1977
upperback -6.11559 5.83221 1.13072
thorax -6.38697 2.18455 -5.94118
lowerneck 16.9707 -9.70429 -30.855
upperneck -13.3984 -18.2661 44.2993
head 1.80505 -11.9511 23.4181
rclavicle -6.82911e-014 -2.34814e-015
rhumerus -35.1907 6.70054 -88.6422
rradius 28.0334
rwrist 23.8168
rhand -10.1167 3.5824
rfingers 7.12502
rthumb 15.8713 -25.7871
lclavicle -6.82911e-014 -2.34814e-015
lhumerus -49.6656 1.37766 85.9495
lradius 48.054
lwrist 46.7963
lhand -15.1625 -17.0194
lfingers 7.12502
lthumb 11.008 12.6719
rfemur -26.3733 -27.3443 35.906
rtibia 39.5383
rfoot -31.8261 17.8073
rtoes -3.47758
lfemur -52.0655 1.94659 -11.1709
ltibia 59.5715
lfoot -22.0316 -6.14746
ltoes -29.2164
886
root 10.9561 15.1237 34.2721 471.567 -79.8722 -455.59
lowerback 1.60807 3.95894 12.1672
upperback -6.14628 5.85436 1.11281
thorax -6.366 2.19637 -5.93803
lowerneck 16.8336 -9.6993 -30.7601
upperneck -13.3776 -18.2151 44.3492
head 1.81197 -11.9255 23.4265
rclavicle 4.60831e-014 5.46254e-014
rhumerus -35.1616 5.63947 -88.0369
rradius 27.3274
rwrist 25.2604
rhand -10.0543 3.71169
rfingers 7.12502
rthumb 15.9314 -25.6531
lclavicle 4.60831e-014 5.46254e-014
lhumerus -49.8883 1.60714 85.6999
lradius 47.5353
lwrist 47.5757
lhand -14.9725 -16.3918
lfingers 7.12502
lthumb 11.1913 13.2897
rfemur -26.3466 -27.2068 35.8686
rtibia 39.3645
rfoot -31.8241 17.7843
rtoes -3.76051
lfemur -52.2614 1.53308 -10.8483
ltibia 58.6901
lfoot -21.8971 -5.37875
ltoes -29.0653
887
root 10.9271 15.1286 34.2983 472.712 -79.8213 -456.561
lowerback 1.51824 3.98228 12.204
upperback -6.18846 5.87327 1.07303
thorax -6.34969 2.20134 -5.99491
lowerneck 16.7012 -9.68365 -30.6782
upperneck -13.3485 -18.1565 44.4008
head 1.81858 -11.8963 23.4445
rclavicle 9.71521e-015 2.4171e-014
rhumerus -35.1721 4.56465 -87.4189
rradius 26.7021
rwrist 26.5876
rhand -9.98185 3.80688
rfingers 7.12502
rthumb 16.0011 -25.5523
lclavicle 9.71521e-015 2.4171e-014
lhumerus -50.0967 1.82308 85.443
lradius 46.9262
lwrist 48.1441
lhand -14.8885 -15.7985
lfingers 7.12502
lthumb 11.2723 13.8786
rfemur -26.3606 -27.1065 35.8086
rtibia 39.2098
rfoot -31.8213 17.8013
rtoes -4.07715
lfemur -52.4272 1.0503 -10.5339
ltibia 57.7455
lfoot -21.6322 -4.81331
ltoes -28.8831
